<?xml version="1.0" ?><svg viewBox="0 0 64 64" xmlns="http://www.w3.org/2000/svg"><defs><style>.cls-1{fill:#606060;}.cls-2{fill:#00e823;}.cls-3{fill:#fff;}.cls-4{fill:#ffce00;}.cls-5{fill:#f29500;}.cls-6,.cls-7,.cls-8,.cls-9{fill:none;stroke-linecap:round;}.cls-6{stroke:#fff;}.cls-6,.cls-7,.cls-8{stroke-miterlimit:10;}.cls-6,.cls-7,.cls-9{stroke-width:2px;}.cls-7,.cls-8,.cls-9{stroke:#000;}.cls-8{stroke-width:4px;}.cls-9{stroke-linejoin:round;}</style></defs><title/><g data-name="JERUK 2" id="JERUK_2"><path class="cls-1" d="M63,58c0,2.89-14.8,5.25-30.5,5.25S1,60.89,1,58s15.8-5.25,31.5-5.25S63,55.11,63,58Z"/><path class="cls-2" d="M22,2.17c4.45,2.22,5.45,9.41,5.45,9.41S21.17,15.14,16.71,13s-5.45-9.41-5.45-9.41S17.53-.05,22,2.17Z"/><path class="cls-3" d="M19.08,12.09c-4.45-2.22-5.45-9.41-5.45-9.41a16.34,16.34,0,0,1,1.66-.79,21.58,21.58,0,0,0-4,1.62s1,7.19,5.45,9.41c3.1,1.52,7,.29,9.07-.66C23.74,12.82,21.21,13.14,19.08,12.09Z"/><circle class="cls-4" cx="32.5" cy="36.1" r="24.5"/><path class="cls-5" d="M41.7,13.7A24,24,0,0,1,30,58.6a22.55,22.55,0,0,1-9.7-2.1A24.6,24.6,0,0,0,32,59.6c13.3,0,25-10.3,25-23.6C57,26.2,50.1,17.4,41.7,13.7Z"/><path class="cls-3" d="M10,37.12a24.44,24.44,0,0,1,24.5-24.5,23,23,0,0,1,9.9,2.14A23.72,23.72,0,0,0,32.5,11.6a24.47,24.47,0,0,0-9.9,46.86A24.48,24.48,0,0,1,10,37.12Z"/><path class="cls-6" d="M20.35,19.76a21.84,21.84,0,0,1,4-2.86"/><path class="cls-6" d="M13.82,29a21.72,21.72,0,0,1,4.49-7.15"/><path class="cls-7" d="M10.45,25.38A25,25,0,0,1,14.84,19"/><path class="cls-7" d="M56.49,40.89A24.48,24.48,0,0,1,8.92,42.83a23.83,23.83,0,0,1-.31-12.25"/><path class="cls-7" d="M56.69,32.32A28.87,28.87,0,0,1,57,36.5"/><path class="cls-7" d="M17.39,16.8a26,26,0,0,1,8.37-4.29A24.58,24.58,0,0,1,56.08,29.36"/><circle cx="41" cy="28.1" r="4"/><path class="cls-7" d="M20.42,1.66A9.36,9.36,0,0,1,22,2.17a6.34,6.34,0,0,1,2.18,1.76"/><path class="cls-7" d="M26.06,7a21,21,0,0,1,1.38,4.61S21.17,15.14,16.71,13s-5.45-9.41-5.45-9.41A17.43,17.43,0,0,1,16.4,1.77"/><circle class="cls-3" cx="41" cy="26.6" r="1"/><circle cx="23" cy="28.1" r="4"/><circle class="cls-3" cx="23" cy="26.6" r="1"/><circle class="cls-5" cx="49" cy="34.6" r="3"/><circle class="cls-5" cx="15" cy="34.6" r="3"/><path class="cls-8" d="M30,10.75c1-3,5-7.11,7-8.12"/><path class="cls-9" d="M43.92,40.06a13,13,0,0,1-23.85.09"/></g></svg>